<svg xmlns="http://www.w3.org/2000/svg" viewBox="0 0 902 520" role="img" aria-label="Numbered science pictures"><rect width="902" height="520" fill="white"/><style>.num{font:700 32px Arial,sans-serif;fill:#222}.panel{fill:#fff;stroke:#2b2b2b;stroke-width:3}</style><g transform="translate(24 24)"><rect class="panel" width="270" height="225" rx="20"/><text class="num" x="18" y="42">1</text><svg x="8" y="12" width="254" height="205" viewBox="0 0 480 320" preserveAspectRatio="xMidYMid meet"><rect width="480" height="320" rx="24" fill="#ffffff"/><defs><linearGradient id="sea" x1="0" y1="0" x2="0" y2="1"><stop offset="0" stop-color="#74c8f2"/><stop offset="1" stop-color="#1679b8"/></linearGradient></defs><rect x="0" y="0" width="480" height="145" fill="#dff4ff"/><circle cx="390" cy="65" r="34" fill="#ffd25c"/><rect y="145" width="480" height="175" fill="url(#sea)"/><path d="M0 155 Q50 125 100 155 T200 155 T300 155 T400 155 T500 155" fill="none" stroke="#fff" stroke-width="10"/><path d="M50 230 C95 190 145 190 190 230 C150 260 90 260 50 230Z" fill="#6fd0ef" stroke="#183847" stroke-width="6"/><path d="M190 230 L230 198 L230 262Z" fill="#6fd0ef" stroke="#183847" stroke-width="6"/><circle cx="88" cy="220" r="5" fill="#183847"/><path d="M115 245 Q125 268 145 246" fill="#56a8d4" stroke="#183847" stroke-width="5"/><path d="M320 230 q18 -28 36 0 q18 -28 36 0" fill="none" stroke="#fff" stroke-width="8" stroke-linecap="round"/></svg></g><g transform="translate(316 24)"><rect class="panel" width="270" height="225" rx="20"/><text class="num" x="18" y="42">2</text><svg x="8" y="12" width="254" height="205" viewBox="0 0 480 320" preserveAspectRatio="xMidYMid meet"><rect width="480" height="320" rx="24" fill="#ffffff"/><rect width="480" height="320" fill="#dff4ff"/><circle cx="400" cy="55" r="28" fill="#ffd25c"/><path d="M0 150 Q120 95 240 145 T480 130 V320 H0Z" fill="#85c86f"/><path d="M210 80 C300 115 315 145 285 180 C250 220 175 230 150 320 H335 C330 265 380 225 365 180 C350 135 300 105 210 80Z" fill="#57b6e6" stroke="#2e89b8" stroke-width="5"/><g fill="#4f963e" stroke="#2f5b2d" stroke-width="4"><circle cx="75" cy="120" r="38"/><circle cx="420" cy="132" r="34"/></g><g fill="#7b5135"><rect x="68" y="140" width="14" height="60"/><rect x="414" y="148" width="13" height="55"/></g><path d="M150 195 Q240 170 325 195" fill="none" stroke="#a76f3b" stroke-width="13"/><path d="M150 195 Q240 170 325 195" fill="none" stroke="#e2b067" stroke-width="7"/></svg></g><g transform="translate(608 24)"><rect class="panel" width="270" height="225" rx="20"/><text class="num" x="18" y="42">3</text><svg x="8" y="12" width="254" height="205" viewBox="0 0 480 320" preserveAspectRatio="xMidYMid meet"><rect width="480" height="320" rx="24" fill="#ffffff"/><rect width="480" height="320" fill="#e9f7e6"/><rect y="240" width="480" height="80" fill="#709f58"/><g stroke="#36592d" stroke-width="5"><polygon points="85,50 20,220 150,220" fill="#3f8a45"/><rect x="76" y="205" width="20" height="70" fill="#77503a"/><polygon points="220,35 145,230 295,230" fill="#2f7840"/><rect x="210" y="215" width="20" height="68" fill="#77503a"/><polygon points="365,60 300,225 430,225" fill="#4d9148"/><rect x="355" y="210" width="20" height="70" fill="#77503a"/></g><g fill="#8cc56b"><circle cx="155" cy="145" r="34"/><circle cx="320" cy="130" r="32"/></g><path d="M260 260 q28 -35 56 0 q-28 30 -56 0Z" fill="#b78455" stroke="#543821" stroke-width="4"/><circle cx="312" cy="248" r="18" fill="#b78455" stroke="#543821" stroke-width="4"/><path d="M319 233 l9 -17 M306 233 l-8 -17" stroke="#543821" stroke-width="4"/></svg></g><g transform="translate(24 271)"><rect class="panel" width="270" height="225" rx="20"/><text class="num" x="18" y="42">4</text><svg x="8" y="12" width="254" height="205" viewBox="0 0 480 320" preserveAspectRatio="xMidYMid meet"><rect width="480" height="320" rx="24" fill="#ffffff"/><rect width="480" height="320" fill="#fff0c7"/><circle cx="390" cy="65" r="38" fill="#ffb62e"/><path d="M0 220 Q100 150 210 220 T480 205 V320 H0Z" fill="#e8c063"/><path d="M0 265 Q110 205 230 265 T480 245 V320 H0Z" fill="#d8a84c"/><path d="M100 238 V135 M100 178 H67 V145 M100 195 H132 V162" fill="none" stroke="#3c8a45" stroke-width="18" stroke-linecap="round"/><path d="M285 225 q35 -35 70 0 h40 l20 20 h-165 l18 -20Z" fill="#b87844" stroke="#65401f" stroke-width="5"/><path d="M325 225 v-50 q0 -30 25 -30 q28 0 35 35" fill="none" stroke="#65401f" stroke-width="7"/><circle cx="382" cy="172" r="5" fill="#222"/></svg></g><g transform="translate(316 271)"><rect class="panel" width="270" height="225" rx="20"/><text class="num" x="18" y="42">5</text><svg x="8" y="12" width="254" height="205" viewBox="0 0 480 320" preserveAspectRatio="xMidYMid meet"><rect width="480" height="320" rx="24" fill="#ffffff"/><rect width="480" height="320" fill="#e9f7ff"/><circle cx="405" cy="55" r="28" fill="#d8ebff"/><rect y="210" width="480" height="110" fill="#bde5f5"/><path d="M0 215 L80 145 L145 205 L225 110 L305 205 L380 150 L480 215Z" fill="#ffffff" stroke="#8ab3c7" stroke-width="5"/><path d="M55 255 q45 -45 100 -20 q28 8 42 30 q-30 40 -95 32 q-52 -5 -47 -42Z" fill="#fff" stroke="#263238" stroke-width="6"/><circle cx="165" cy="243" r="26" fill="#fff" stroke="#263238" stroke-width="6"/><circle cx="174" cy="238" r="4" fill="#222"/><circle cx="186" cy="248" r="4" fill="#222"/><path d="M330 270 q35 -45 70 0 q-35 25 -70 0Z" fill="#202b33"/><ellipse cx="365" cy="258" rx="17" ry="27" fill="#fff"/><circle cx="365" cy="245" r="5" fill="#222"/><path d="M380 248 l20 8 l-20 8Z" fill="#f5a623"/></svg></g><g transform="translate(608 271)"><rect class="panel" width="270" height="225" rx="20"/><text class="num" x="18" y="42">6</text><svg x="8" y="12" width="254" height="205" viewBox="0 0 480 320" preserveAspectRatio="xMidYMid meet"><rect width="480" height="320" rx="24" fill="#ffffff"/><rect width="480" height="320" fill="#eef9e9"/><rect y="205" width="480" height="115" fill="#8fc06b"/><ellipse cx="250" cy="235" rx="175" ry="72" fill="#62b9dc" stroke="#3d8cad" stroke-width="6"/><g fill="#4f9a4e" stroke="#2e6635" stroke-width="4"><ellipse cx="180" cy="220" rx="38" ry="19"/><ellipse cx="300" cy="255" rx="34" ry="18"/></g><path d="M180 220 l18 -14" stroke="#2e6635" stroke-width="4"/><g stroke="#557d35" stroke-width="8" stroke-linecap="round"><path d="M75 250 V145"/><path d="M95 250 V165"/><path d="M415 250 V145"/><path d="M395 250 V170"/></g><ellipse cx="255" cy="198" rx="42" ry="28" fill="#75bd52" stroke="#2e6635" stroke-width="5"/><circle cx="228" cy="175" r="18" fill="#75bd52" stroke="#2e6635" stroke-width="5"/><circle cx="282" cy="175" r="18" fill="#75bd52" stroke="#2e6635" stroke-width="5"/><circle cx="228" cy="174" r="5"/><circle cx="282" cy="174" r="5"/><path d="M240 204 Q255 216 270 204" fill="none" stroke="#2e6635" stroke-width="4"/></svg></g></svg>